<?xml version="1.0" encoding="UTF-8" standalone="no"?><svg xmlns="http://www.w3.org/2000/svg" xmlns:xlink="http://www.w3.org/1999/xlink" contentScriptType="application/ecmascript" contentStyleType="text/css" height="636px" preserveAspectRatio="none" style="width:303px;height:636px;" version="1.1" viewBox="0 0 303 636" width="303px" zoomAndPan="magnify"><defs><filter height="300%" id="f1ekbftgb5svyf" width="300%" x="-1" y="-1"><feGaussianBlur result="blurOut" stdDeviation="2.0"/><feColorMatrix in="blurOut" result="blurOut2" type="matrix" values="0 0 0 0 0 0 0 0 0 0 0 0 0 0 0 0 0 0 .4 0"/><feOffset dx="4.0" dy="4.0" in="blurOut2" result="blurOut3"/><feBlend in="SourceGraphic" in2="blurOut3" mode="normal"/></filter></defs><g><rect fill="#FFFFFF" filter="url(#f1ekbftgb5svyf)" height="63.5088" style="stroke: #A80036; stroke-width: 1.0;" width="10" x="36.5" y="167.8745"/><rect fill="#FFFFFF" filter="url(#f1ekbftgb5svyf)" height="31.7544" style="stroke: #A80036; stroke-width: 1.0;" width="10" x="36.5" y="386.4009"/><rect fill="#FFFFFF" filter="url(#f1ekbftgb5svyf)" height="77.5088" style="stroke: #A80036; stroke-width: 1.0;" width="10" x="36.5" y="449.9097"/><rect fill="#FFFFFF" filter="url(#f1ekbftgb5svyf)" height="282.0352" style="stroke: #A80036; stroke-width: 1.0;" width="10" x="128.5" y="167.8745"/><rect fill="#FFFFFF" filter="url(#f1ekbftgb5svyf)" height="337.5439" style="stroke: #A80036; stroke-width: 1.0;" width="10" x="226.5" y="199.6289"/><line style="stroke: #A80036; stroke-width: 1.0; stroke-dasharray: 5.0,5.0;" x1="41" x2="41" y1="89.1201" y2="546.1729"/><line style="stroke: #A80036; stroke-width: 1.0; stroke-dasharray: 5.0,5.0;" x1="133" x2="133" y1="89.1201" y2="546.1729"/><line style="stroke: #A80036; stroke-width: 1.0; stroke-dasharray: 5.0,5.0;" x1="231" x2="231" y1="89.1201" y2="546.1729"/><text fill="#000000" font-family="sans-serif" font-size="14" lengthAdjust="spacingAndGlyphs" textLength="61" x="8" y="86.0439">商户-买方</text><ellipse cx="41.5" cy="13" fill="#FEFECE" filter="url(#f1ekbftgb5svyf)" rx="8" ry="8" style="stroke: #A80036; stroke-width: 2.0;"/><path d="M41.5,21 L41.5,48 M28.5,29 L54.5,29 M41.5,48 L28.5,63 M41.5,48 L54.5,63 " fill="#FEFECE" filter="url(#f1ekbftgb5svyf)" style="stroke: #A80036; stroke-width: 2.0;"/><text fill="#000000" font-family="sans-serif" font-size="14" lengthAdjust="spacingAndGlyphs" textLength="61" x="8" y="561.2168">商户-买方</text><ellipse cx="41.5" cy="574.293" fill="#FEFECE" filter="url(#f1ekbftgb5svyf)" rx="8" ry="8" style="stroke: #A80036; stroke-width: 2.0;"/><path d="M41.5,582.293 L41.5,609.293 M28.5,590.293 L54.5,590.293 M41.5,609.293 L28.5,624.293 M41.5,609.293 L54.5,624.293 " fill="#FEFECE" filter="url(#f1ekbftgb5svyf)" style="stroke: #A80036; stroke-width: 2.0;"/><text fill="#000000" font-family="sans-serif" font-size="14" lengthAdjust="spacingAndGlyphs" textLength="61" x="100" y="86.0439">平台-卖方</text><ellipse cx="133.5" cy="13" fill="#FEFECE" filter="url(#f1ekbftgb5svyf)" rx="8" ry="8" style="stroke: #A80036; stroke-width: 2.0;"/><path d="M133.5,21 L133.5,48 M120.5,29 L146.5,29 M133.5,48 L120.5,63 M133.5,48 L146.5,63 " fill="#FEFECE" filter="url(#f1ekbftgb5svyf)" style="stroke: #A80036; stroke-width: 2.0;"/><text fill="#000000" font-family="sans-serif" font-size="14" lengthAdjust="spacingAndGlyphs" textLength="61" x="100" y="561.2168">平台-卖方</text><ellipse cx="133.5" cy="574.293" fill="#FEFECE" filter="url(#f1ekbftgb5svyf)" rx="8" ry="8" style="stroke: #A80036; stroke-width: 2.0;"/><path d="M133.5,582.293 L133.5,609.293 M120.5,590.293 L146.5,590.293 M133.5,609.293 L120.5,624.293 M133.5,609.293 L146.5,624.293 " fill="#FEFECE" filter="url(#f1ekbftgb5svyf)" style="stroke: #A80036; stroke-width: 2.0;"/><text fill="#000000" font-family="sans-serif" font-size="14" lengthAdjust="spacingAndGlyphs" textLength="103" x="177" y="86.0439">金融机构-资金方</text><path d="M213.5,34 C213.5,24 231.5,24 231.5,24 C231.5,24 249.5,24 249.5,34 L249.5,60 C249.5,70 231.5,70 231.5,70 C231.5,70 213.5,70 213.5,60 L213.5,34 " fill="#FEFECE" filter="url(#f1ekbftgb5svyf)" style="stroke: #000000; stroke-width: 1.5;"/><path d="M213.5,34 C213.5,44 231.5,44 231.5,44 C231.5,44 249.5,44 249.5,34 " fill="none" style="stroke: #000000; stroke-width: 1.5;"/><text fill="#000000" font-family="sans-serif" font-size="14" lengthAdjust="spacingAndGlyphs" textLength="103" x="177" y="561.2168">金融机构-资金方</text><path d="M213.5,574.293 C213.5,564.293 231.5,564.293 231.5,564.293 C231.5,564.293 249.5,564.293 249.5,574.293 L249.5,600.293 C249.5,610.293 231.5,610.293 231.5,610.293 C231.5,610.293 213.5,610.293 213.5,600.293 L213.5,574.293 " fill="#FEFECE" filter="url(#f1ekbftgb5svyf)" style="stroke: #000000; stroke-width: 1.5;"/><path d="M213.5,574.293 C213.5,584.293 231.5,584.293 231.5,584.293 C231.5,584.293 249.5,584.293 249.5,574.293 " fill="none" style="stroke: #000000; stroke-width: 1.5;"/><rect fill="#FFFFFF" filter="url(#f1ekbftgb5svyf)" height="63.5088" style="stroke: #A80036; stroke-width: 1.0;" width="10" x="36.5" y="167.8745"/><rect fill="#FFFFFF" filter="url(#f1ekbftgb5svyf)" height="31.7544" style="stroke: #A80036; stroke-width: 1.0;" width="10" x="36.5" y="386.4009"/><rect fill="#FFFFFF" filter="url(#f1ekbftgb5svyf)" height="77.5088" style="stroke: #A80036; stroke-width: 1.0;" width="10" x="36.5" y="449.9097"/><rect fill="#FFFFFF" filter="url(#f1ekbftgb5svyf)" height="282.0352" style="stroke: #A80036; stroke-width: 1.0;" width="10" x="128.5" y="167.8745"/><rect fill="#FFFFFF" filter="url(#f1ekbftgb5svyf)" height="337.5439" style="stroke: #A80036; stroke-width: 1.0;" width="10" x="226.5" y="199.6289"/><rect fill="#EEEEEE" filter="url(#f1ekbftgb5svyf)" height="3" style="stroke: #EEEEEE; stroke-width: 1.0;" width="288" x="3" y="120.9973"/><line style="stroke: #000000; stroke-width: 1.0;" x1="3" x2="291" y1="120.9973" y2="120.9973"/><line style="stroke: #000000; stroke-width: 1.0;" x1="3" x2="291" y1="123.9973" y2="123.9973"/><rect fill="#EEEEEE" filter="url(#f1ekbftgb5svyf)" height="25.7544" style="stroke: #000000; stroke-width: 2.0;" width="78" x="108" y="109.1201"/><text fill="#000000" font-family="sans-serif" font-size="13" font-weight="bold" lengthAdjust="spacingAndGlyphs" textLength="56" x="114" y="128.0181">贷款申请</text><polygon fill="#0000FF" points="116.5,163.8745,126.5,167.8745,116.5,171.8745,120.5,167.8745" style="stroke: #0000FF; stroke-width: 1.0;"/><line style="stroke: #0000FF; stroke-width: 1.0;" x1="46.5" x2="122.5" y1="167.8745" y2="167.8745"/><text fill="#000000" font-family="sans-serif" font-size="13" font-weight="bold" lengthAdjust="spacingAndGlyphs" textLength="7" x="53.5" y="163.7725">1</text><text fill="#000000" font-family="sans-serif" font-size="13" lengthAdjust="spacingAndGlyphs" textLength="52" x="64.5" y="163.7725">商品确认</text><polygon fill="#0000FF" points="214.5,195.6289,224.5,199.6289,214.5,203.6289,218.5,199.6289" style="stroke: #0000FF; stroke-width: 1.0;"/><line style="stroke: #0000FF; stroke-width: 1.0;" x1="46.5" x2="220.5" y1="199.6289" y2="199.6289"/><text fill="#000000" font-family="sans-serif" font-size="13" font-weight="bold" lengthAdjust="spacingAndGlyphs" textLength="7" x="53.5" y="195.5269">2</text><text fill="#000000" font-family="sans-serif" font-size="13" lengthAdjust="spacingAndGlyphs" textLength="52" x="64.5" y="195.5269">支付首付</text><polygon fill="#0000FF" points="214.5,227.3833,224.5,231.3833,214.5,235.3833,218.5,231.3833" style="stroke: #0000FF; stroke-width: 1.0;"/><line style="stroke: #0000FF; stroke-width: 1.0;" x1="41.5" x2="220.5" y1="231.3833" y2="231.3833"/><text fill="#000000" font-family="sans-serif" font-size="13" font-weight="bold" lengthAdjust="spacingAndGlyphs" textLength="7" x="48.5" y="227.2813">3</text><text fill="#000000" font-family="sans-serif" font-size="13" lengthAdjust="spacingAndGlyphs" textLength="52" x="59.5" y="227.2813">申请贷款</text><rect fill="#EEEEEE" filter="url(#f1ekbftgb5svyf)" height="3" style="stroke: #EEEEEE; stroke-width: 1.0;" width="288" x="3" y="262.0149"/><line style="stroke: #000000; stroke-width: 1.0;" x1="3" x2="291" y1="262.0149" y2="262.0149"/><line style="stroke: #000000; stroke-width: 1.0;" x1="3" x2="291" y1="265.0149" y2="265.0149"/><rect fill="#EEEEEE" filter="url(#f1ekbftgb5svyf)" height="25.7544" style="stroke: #000000; stroke-width: 2.0;" width="78" x="108" y="250.1377"/><text fill="#000000" font-family="sans-serif" font-size="13" font-weight="bold" lengthAdjust="spacingAndGlyphs" textLength="56" x="114" y="269.0356">贷款批准</text><polygon fill="#A80036" points="149.5,304.8921,139.5,308.8921,149.5,312.8921,145.5,308.8921" style="stroke: #A80036; stroke-width: 1.0;"/><line style="stroke: #A80036; stroke-width: 1.0;" x1="143.5" x2="225.5" y1="308.8921" y2="308.8921"/><text fill="#000000" font-family="sans-serif" font-size="13" font-weight="bold" lengthAdjust="spacingAndGlyphs" textLength="7" x="155.5" y="304.79">4</text><text fill="#000000" font-family="sans-serif" font-size="13" lengthAdjust="spacingAndGlyphs" textLength="52" x="166.5" y="304.79">批准贷款</text><rect fill="#EEEEEE" filter="url(#f1ekbftgb5svyf)" height="3" style="stroke: #EEEEEE; stroke-width: 1.0;" width="288" x="3" y="339.5237"/><line style="stroke: #000000; stroke-width: 1.0;" x1="3" x2="291" y1="339.5237" y2="339.5237"/><line style="stroke: #000000; stroke-width: 1.0;" x1="3" x2="291" y1="342.5237" y2="342.5237"/><rect fill="#EEEEEE" filter="url(#f1ekbftgb5svyf)" height="25.7544" style="stroke: #000000; stroke-width: 2.0;" width="50" x="122" y="327.6465"/><text fill="#000000" font-family="sans-serif" font-size="13" font-weight="bold" lengthAdjust="spacingAndGlyphs" textLength="28" x="128" y="346.5444">放款</text><polygon fill="#A80036" points="57.5,382.4009,47.5,386.4009,57.5,390.4009,53.5,386.4009" style="stroke: #A80036; stroke-width: 1.0;"/><line style="stroke: #A80036; stroke-width: 1.0;" x1="51.5" x2="127.5" y1="386.4009" y2="386.4009"/><text fill="#000000" font-family="sans-serif" font-size="13" font-weight="bold" lengthAdjust="spacingAndGlyphs" textLength="7" x="63.5" y="382.2988">5</text><text fill="#000000" font-family="sans-serif" font-size="13" lengthAdjust="spacingAndGlyphs" textLength="52" x="74.5" y="382.2988">商品发货</text><polygon fill="#A80036" points="214.5,414.1553,224.5,418.1553,214.5,422.1553,218.5,418.1553" style="stroke: #A80036; stroke-width: 1.0;"/><line style="stroke: #A80036; stroke-width: 1.0;" x1="41.5" x2="220.5" y1="418.1553" y2="418.1553"/><text fill="#000000" font-family="sans-serif" font-size="13" font-weight="bold" lengthAdjust="spacingAndGlyphs" textLength="7" x="48.5" y="414.0532">6</text><text fill="#000000" font-family="sans-serif" font-size="13" lengthAdjust="spacingAndGlyphs" textLength="52" x="59.5" y="414.0532">确认收货</text><polygon fill="#A80036" points="144.5,445.9097,134.5,449.9097,144.5,453.9097,140.5,449.9097" style="stroke: #A80036; stroke-width: 1.0;"/><line style="stroke: #A80036; stroke-width: 1.0;" x1="138.5" x2="225.5" y1="449.9097" y2="449.9097"/><text fill="#000000" font-family="sans-serif" font-size="13" font-weight="bold" lengthAdjust="spacingAndGlyphs" textLength="7" x="150.5" y="445.8076">7</text><text fill="#000000" font-family="sans-serif" font-size="13" lengthAdjust="spacingAndGlyphs" textLength="26" x="161.5" y="445.8076">放款</text><rect fill="#EEEEEE" filter="url(#f1ekbftgb5svyf)" height="3" style="stroke: #EEEEEE; stroke-width: 1.0;" width="288" x="3" y="480.5413"/><line style="stroke: #000000; stroke-width: 1.0;" x1="3" x2="291" y1="480.5413" y2="480.5413"/><line style="stroke: #000000; stroke-width: 1.0;" x1="3" x2="291" y1="483.5413" y2="483.5413"/><rect fill="#EEEEEE" filter="url(#f1ekbftgb5svyf)" height="25.7544" style="stroke: #000000; stroke-width: 2.0;" width="50" x="122" y="468.6641"/><text fill="#000000" font-family="sans-serif" font-size="13" font-weight="bold" lengthAdjust="spacingAndGlyphs" textLength="28" x="128" y="487.562">还款</text><polygon fill="#0000FF" points="214.5,523.4185,224.5,527.4185,214.5,531.4185,218.5,527.4185" style="stroke: #0000FF; stroke-width: 1.0;"/><line style="stroke: #0000FF; stroke-width: 1.0;" x1="41.5" x2="220.5" y1="527.4185" y2="527.4185"/><text fill="#000000" font-family="sans-serif" font-size="13" font-weight="bold" lengthAdjust="spacingAndGlyphs" textLength="7" x="48.5" y="523.3164">8</text><text fill="#000000" font-family="sans-serif" font-size="13" lengthAdjust="spacingAndGlyphs" textLength="26" x="59.5" y="523.3164">还款</text><!--
@startuml
actor “商户-买方” as Foo1
actor “平台-卖方” as Foo2
database “金融机构-资金方” as Foo3

autonumber
== 贷款申请  ==
Foo1 -[#0000FF]> Foo2 : 商品确认
activate Foo1
activate Foo2
Foo1 -[#0000FF]> Foo3 : 支付首付

activate Foo3
Foo1 -[#0000FF]> Foo3 : 申请贷款
deactivate Foo1
== 贷款批准  ==
Foo3 -> Foo2 : 批准贷款
== 放款  ==
Foo2 -> Foo1 : 商品发货
activate Foo1
Foo1 -> Foo3 : 确认收货
deactivate Foo1
Foo3 -> Foo2 : 放款
deactivate Foo2
== 还款  ==
activate Foo1
Foo1 -[#0000FF]> Foo3 : 还款
deactivate Foo1

@enduml

PlantUML version 1.2017.15(Tue Jul 04 00:45:34 CST 2017)
(EPL source distribution)
Java Runtime: Java(TM) SE Runtime Environment
JVM: Java HotSpot(TM) 64-Bit Server VM
Java Version: 1.8.0_144-b01
Operating System: Windows 10
OS Version: 10.0
Default Encoding: GBK
Language: zh
Country: CN
--></g></svg>