<?xml version="1.0" encoding="UTF-8" standalone="no"?><svg xmlns="http://www.w3.org/2000/svg" xmlns:xlink="http://www.w3.org/1999/xlink" contentScriptType="application/ecmascript" contentStyleType="text/css" height="904px" preserveAspectRatio="none" style="width:682px;height:904px;" version="1.1" viewBox="0 0 682 904" width="682px" zoomAndPan="magnify"><defs><filter height="300%" id="f1bu9cbtf1uo1m" width="300%" x="-1" y="-1"><feGaussianBlur result="blurOut" stdDeviation="2.0"/><feColorMatrix in="blurOut" result="blurOut2" type="matrix" values="0 0 0 0 0 0 0 0 0 0 0 0 0 0 0 0 0 0 .4 0"/><feOffset dx="4.0" dy="4.0" in="blurOut2" result="blurOut3"/><feBlend in="SourceGraphic" in2="blurOut3" mode="normal"/></filter></defs><g><rect fill="#FFFFFF" filter="url(#f1bu9cbtf1uo1m)" height="95.2632" style="stroke: #A80036; stroke-width: 1.0;" width="10" x="36.5" y="167.8745"/><rect fill="#FFFFFF" filter="url(#f1bu9cbtf1uo1m)" height="95.2632" style="stroke: #A80036; stroke-width: 1.0;" width="10" x="36.5" y="340.6465"/><rect fill="#FFFFFF" filter="url(#f1bu9cbtf1uo1m)" height="109.2632" style="stroke: #A80036; stroke-width: 1.0;" width="10" x="36.5" y="545.1729"/><rect fill="#FFFFFF" filter="url(#f1bu9cbtf1uo1m)" height="77.5088" style="stroke: #A80036; stroke-width: 1.0;" width="10" x="36.5" y="717.9448"/><rect fill="#FFFFFF" filter="url(#f1bu9cbtf1uo1m)" height="63.5088" style="stroke: #A80036; stroke-width: 1.0;" width="10" x="248.5" y="167.8745"/><rect fill="#FFFFFF" filter="url(#f1bu9cbtf1uo1m)" height="31.7544" style="stroke: #A80036; stroke-width: 1.0;" width="10" x="248.5" y="340.6465"/><rect fill="#FFFFFF" filter="url(#f1bu9cbtf1uo1m)" height="172.772" style="stroke: #A80036; stroke-width: 1.0;" width="10" x="248.5" y="513.4185"/><rect fill="#FFFFFF" filter="url(#f1bu9cbtf1uo1m)" height="63.5088" style="stroke: #A80036; stroke-width: 1.0;" width="10" x="605.5" y="199.6289"/><rect fill="#FFFFFF" filter="url(#f1bu9cbtf1uo1m)" height="454.8071" style="stroke: #A80036; stroke-width: 1.0;" width="10" x="605.5" y="340.6465"/><line style="stroke: #A80036; stroke-width: 1.0; stroke-dasharray: 5.0,5.0;" x1="41" x2="41" y1="89.1201" y2="814.208"/><line style="stroke: #A80036; stroke-width: 1.0; stroke-dasharray: 5.0,5.0;" x1="253" x2="253" y1="89.1201" y2="814.208"/><line style="stroke: #A80036; stroke-width: 1.0; stroke-dasharray: 5.0,5.0;" x1="610" x2="610" y1="89.1201" y2="814.208"/><text fill="#000000" font-family="sans-serif" font-size="14" lengthAdjust="spacingAndGlyphs" textLength="61" x="8" y="86.0439">商户-买方</text><ellipse cx="41.5" cy="13" fill="#FEFECE" filter="url(#f1bu9cbtf1uo1m)" rx="8" ry="8" style="stroke: #A80036; stroke-width: 2.0;"/><path d="M41.5,21 L41.5,48 M28.5,29 L54.5,29 M41.5,48 L28.5,63 M41.5,48 L54.5,63 " fill="#FEFECE" filter="url(#f1bu9cbtf1uo1m)" style="stroke: #A80036; stroke-width: 2.0;"/><text fill="#000000" font-family="sans-serif" font-size="14" lengthAdjust="spacingAndGlyphs" textLength="61" x="8" y="829.252">商户-买方</text><ellipse cx="41.5" cy="842.3281" fill="#FEFECE" filter="url(#f1bu9cbtf1uo1m)" rx="8" ry="8" style="stroke: #A80036; stroke-width: 2.0;"/><path d="M41.5,850.3281 L41.5,877.3281 M28.5,858.3281 L54.5,858.3281 M41.5,877.3281 L28.5,892.3281 M41.5,877.3281 L54.5,892.3281 " fill="#FEFECE" filter="url(#f1bu9cbtf1uo1m)" style="stroke: #A80036; stroke-width: 2.0;"/><text fill="#000000" font-family="sans-serif" font-size="14" lengthAdjust="spacingAndGlyphs" textLength="61" x="220" y="86.0439">平台-卖方</text><ellipse cx="253.5" cy="13" fill="#FEFECE" filter="url(#f1bu9cbtf1uo1m)" rx="8" ry="8" style="stroke: #A80036; stroke-width: 2.0;"/><path d="M253.5,21 L253.5,48 M240.5,29 L266.5,29 M253.5,48 L240.5,63 M253.5,48 L266.5,63 " fill="#FEFECE" filter="url(#f1bu9cbtf1uo1m)" style="stroke: #A80036; stroke-width: 2.0;"/><text fill="#000000" font-family="sans-serif" font-size="14" lengthAdjust="spacingAndGlyphs" textLength="61" x="220" y="829.252">平台-卖方</text><ellipse cx="253.5" cy="842.3281" fill="#FEFECE" filter="url(#f1bu9cbtf1uo1m)" rx="8" ry="8" style="stroke: #A80036; stroke-width: 2.0;"/><path d="M253.5,850.3281 L253.5,877.3281 M240.5,858.3281 L266.5,858.3281 M253.5,877.3281 L240.5,892.3281 M253.5,877.3281 L266.5,892.3281 " fill="#FEFECE" filter="url(#f1bu9cbtf1uo1m)" style="stroke: #A80036; stroke-width: 2.0;"/><text fill="#000000" font-family="sans-serif" font-size="14" lengthAdjust="spacingAndGlyphs" textLength="103" x="556" y="86.0439">金融机构-资金方</text><path d="M592.5,34 C592.5,24 610.5,24 610.5,24 C610.5,24 628.5,24 628.5,34 L628.5,60 C628.5,70 610.5,70 610.5,70 C610.5,70 592.5,70 592.5,60 L592.5,34 " fill="#FEFECE" filter="url(#f1bu9cbtf1uo1m)" style="stroke: #000000; stroke-width: 1.5;"/><path d="M592.5,34 C592.5,44 610.5,44 610.5,44 C610.5,44 628.5,44 628.5,34 " fill="none" style="stroke: #000000; stroke-width: 1.5;"/><text fill="#000000" font-family="sans-serif" font-size="14" lengthAdjust="spacingAndGlyphs" textLength="103" x="556" y="829.252">金融机构-资金方</text><path d="M592.5,842.3281 C592.5,832.3281 610.5,832.3281 610.5,832.3281 C610.5,832.3281 628.5,832.3281 628.5,842.3281 L628.5,868.3281 C628.5,878.3281 610.5,878.3281 610.5,878.3281 C610.5,878.3281 592.5,878.3281 592.5,868.3281 L592.5,842.3281 " fill="#FEFECE" filter="url(#f1bu9cbtf1uo1m)" style="stroke: #000000; stroke-width: 1.5;"/><path d="M592.5,842.3281 C592.5,852.3281 610.5,852.3281 610.5,852.3281 C610.5,852.3281 628.5,852.3281 628.5,842.3281 " fill="none" style="stroke: #000000; stroke-width: 1.5;"/><rect fill="#FFFFFF" filter="url(#f1bu9cbtf1uo1m)" height="95.2632" style="stroke: #A80036; stroke-width: 1.0;" width="10" x="36.5" y="167.8745"/><rect fill="#FFFFFF" filter="url(#f1bu9cbtf1uo1m)" height="95.2632" style="stroke: #A80036; stroke-width: 1.0;" width="10" x="36.5" y="340.6465"/><rect fill="#FFFFFF" filter="url(#f1bu9cbtf1uo1m)" height="109.2632" style="stroke: #A80036; stroke-width: 1.0;" width="10" x="36.5" y="545.1729"/><rect fill="#FFFFFF" filter="url(#f1bu9cbtf1uo1m)" height="77.5088" style="stroke: #A80036; stroke-width: 1.0;" width="10" x="36.5" y="717.9448"/><rect fill="#FFFFFF" filter="url(#f1bu9cbtf1uo1m)" height="63.5088" style="stroke: #A80036; stroke-width: 1.0;" width="10" x="248.5" y="167.8745"/><rect fill="#FFFFFF" filter="url(#f1bu9cbtf1uo1m)" height="31.7544" style="stroke: #A80036; stroke-width: 1.0;" width="10" x="248.5" y="340.6465"/><rect fill="#FFFFFF" filter="url(#f1bu9cbtf1uo1m)" height="172.772" style="stroke: #A80036; stroke-width: 1.0;" width="10" x="248.5" y="513.4185"/><rect fill="#FFFFFF" filter="url(#f1bu9cbtf1uo1m)" height="63.5088" style="stroke: #A80036; stroke-width: 1.0;" width="10" x="605.5" y="199.6289"/><rect fill="#FFFFFF" filter="url(#f1bu9cbtf1uo1m)" height="454.8071" style="stroke: #A80036; stroke-width: 1.0;" width="10" x="605.5" y="340.6465"/><rect fill="#EEEEEE" filter="url(#f1bu9cbtf1uo1m)" height="3" style="stroke: #EEEEEE; stroke-width: 1.0;" width="667" x="3" y="120.9973"/><line style="stroke: #000000; stroke-width: 1.0;" x1="3" x2="670" y1="120.9973" y2="120.9973"/><line style="stroke: #000000; stroke-width: 1.0;" x1="3" x2="670" y1="123.9973" y2="123.9973"/><rect fill="#EEEEEE" filter="url(#f1bu9cbtf1uo1m)" height="25.7544" style="stroke: #000000; stroke-width: 2.0;" width="78" x="297.5" y="109.1201"/><text fill="#000000" font-family="sans-serif" font-size="13" font-weight="bold" lengthAdjust="spacingAndGlyphs" textLength="56" x="303.5" y="128.0181">商户注册</text><polygon fill="#0000FF" points="236.5,163.8745,246.5,167.8745,236.5,171.8745,240.5,167.8745" style="stroke: #0000FF; stroke-width: 1.0;"/><line style="stroke: #0000FF; stroke-width: 1.0;" x1="46.5" x2="242.5" y1="167.8745" y2="167.8745"/><text fill="#000000" font-family="sans-serif" font-size="13" font-weight="bold" lengthAdjust="spacingAndGlyphs" textLength="7" x="53.5" y="163.7725">1</text><text fill="#000000" font-family="sans-serif" font-size="13" lengthAdjust="spacingAndGlyphs" textLength="177" x="64.5" y="163.7725">申请“分期购”补齐商户注册信息</text><polygon fill="#008000" points="593.5,195.6289,603.5,199.6289,593.5,203.6289,597.5,199.6289" style="stroke: #008000; stroke-width: 1.0;"/><line style="stroke: #008000; stroke-width: 1.0; stroke-dasharray: 2.0,2.0;" x1="258.5" x2="599.5" y1="199.6289" y2="199.6289"/><text fill="#000000" font-family="sans-serif" font-size="13" font-weight="bold" lengthAdjust="spacingAndGlyphs" textLength="7" x="265.5" y="195.5269">2</text><text fill="#000000" font-family="sans-serif" font-size="13" lengthAdjust="spacingAndGlyphs" textLength="117" x="276.5" y="195.5269">后台自动为商户开户</text><polygon fill="#008000" points="264.5,227.3833,254.5,231.3833,264.5,235.3833,260.5,231.3833" style="stroke: #008000; stroke-width: 1.0;"/><line style="stroke: #008000; stroke-width: 1.0; stroke-dasharray: 2.0,2.0;" x1="258.5" x2="604.5" y1="231.3833" y2="231.3833"/><text fill="#000000" font-family="sans-serif" font-size="13" font-weight="bold" lengthAdjust="spacingAndGlyphs" textLength="7" x="270.5" y="227.2813">3</text><text fill="#000000" font-family="sans-serif" font-size="13" lengthAdjust="spacingAndGlyphs" textLength="104" x="281.5" y="227.2813">返回商户开户账号</text><polygon fill="#008000" points="52.5,259.1377,42.5,263.1377,52.5,267.1377,48.5,263.1377" style="stroke: #008000; stroke-width: 1.0;"/><line style="stroke: #008000; stroke-width: 1.0; stroke-dasharray: 2.0,2.0;" x1="46.5" x2="609.5" y1="263.1377" y2="263.1377"/><text fill="#000000" font-family="sans-serif" font-size="13" font-weight="bold" lengthAdjust="spacingAndGlyphs" textLength="7" x="58.5" y="259.0356">4</text><text fill="#000000" font-family="sans-serif" font-size="13" lengthAdjust="spacingAndGlyphs" textLength="182" x="69.5" y="259.0356">短信发送商户通华平台初始密码</text><rect fill="#EEEEEE" filter="url(#f1bu9cbtf1uo1m)" height="3" style="stroke: #EEEEEE; stroke-width: 1.0;" width="667" x="3" y="293.7693"/><line style="stroke: #000000; stroke-width: 1.0;" x1="3" x2="670" y1="293.7693" y2="293.7693"/><line style="stroke: #000000; stroke-width: 1.0;" x1="3" x2="670" y1="296.7693" y2="296.7693"/><rect fill="#EEEEEE" filter="url(#f1bu9cbtf1uo1m)" height="25.7544" style="stroke: #000000; stroke-width: 2.0;" width="78" x="297.5" y="281.8921"/><text fill="#000000" font-family="sans-serif" font-size="13" font-weight="bold" lengthAdjust="spacingAndGlyphs" textLength="56" x="303.5" y="300.79">贷款申请</text><polygon fill="#0000FF" points="236.5,336.6465,246.5,340.6465,236.5,344.6465,240.5,340.6465" style="stroke: #0000FF; stroke-width: 1.0;"/><line style="stroke: #0000FF; stroke-width: 1.0;" x1="46.5" x2="242.5" y1="340.6465" y2="340.6465"/><text fill="#000000" font-family="sans-serif" font-size="13" font-weight="bold" lengthAdjust="spacingAndGlyphs" textLength="7" x="53.5" y="336.5444">5</text><text fill="#000000" font-family="sans-serif" font-size="13" lengthAdjust="spacingAndGlyphs" textLength="164" x="64.5" y="336.5444">确认选购商品并使用“分期购”</text><polygon fill="#0000FF" points="593.5,368.4009,603.5,372.4009,593.5,376.4009,597.5,372.4009" style="stroke: #0000FF; stroke-width: 1.0;"/><line style="stroke: #0000FF; stroke-width: 1.0;" x1="253.5" x2="599.5" y1="372.4009" y2="372.4009"/><text fill="#000000" font-family="sans-serif" font-size="13" font-weight="bold" lengthAdjust="spacingAndGlyphs" textLength="7" x="260.5" y="368.2988">6</text><text fill="#000000" font-family="sans-serif" font-size="13" lengthAdjust="spacingAndGlyphs" textLength="312" x="271.5" y="368.2988">发送：商户号、订单号、商品清单、总金额、首付金额</text><polygon fill="#0000FF" points="57.5,400.1553,47.5,404.1553,57.5,408.1553,53.5,404.1553" style="stroke: #0000FF; stroke-width: 1.0;"/><line style="stroke: #0000FF; stroke-width: 1.0;" x1="51.5" x2="604.5" y1="404.1553" y2="404.1553"/><text fill="#000000" font-family="sans-serif" font-size="13" font-weight="bold" lengthAdjust="spacingAndGlyphs" textLength="7" x="63.5" y="400.0532">7</text><text fill="#000000" font-family="sans-serif" font-size="13" lengthAdjust="spacingAndGlyphs" textLength="312" x="74.5" y="400.0532">展示贷款合同、订单号、商品清单、总金额、首付金额</text><polygon fill="#0000FF" points="593.5,431.9097,603.5,435.9097,593.5,439.9097,597.5,435.9097" style="stroke: #0000FF; stroke-width: 1.0;"/><line style="stroke: #0000FF; stroke-width: 1.0;" x1="41.5" x2="599.5" y1="435.9097" y2="435.9097"/><text fill="#000000" font-family="sans-serif" font-size="13" font-weight="bold" lengthAdjust="spacingAndGlyphs" textLength="7" x="48.5" y="431.8076">8</text><text fill="#000000" font-family="sans-serif" font-size="13" lengthAdjust="spacingAndGlyphs" textLength="286" x="59.5" y="431.8076">确认贷款合同、填写密码或短信验证码、支付首付</text><rect fill="#EEEEEE" filter="url(#f1bu9cbtf1uo1m)" height="3" style="stroke: #EEEEEE; stroke-width: 1.0;" width="667" x="3" y="466.5413"/><line style="stroke: #000000; stroke-width: 1.0;" x1="3" x2="670" y1="466.5413" y2="466.5413"/><line style="stroke: #000000; stroke-width: 1.0;" x1="3" x2="670" y1="469.5413" y2="469.5413"/><rect fill="#EEEEEE" filter="url(#f1bu9cbtf1uo1m)" height="25.7544" style="stroke: #000000; stroke-width: 2.0;" width="78" x="297.5" y="454.6641"/><text fill="#000000" font-family="sans-serif" font-size="13" font-weight="bold" lengthAdjust="spacingAndGlyphs" textLength="56" x="303.5" y="473.562">贷款批准</text><polygon fill="#A80036" points="269.5,509.4185,259.5,513.4185,269.5,517.4185,265.5,513.4185" style="stroke: #A80036; stroke-width: 1.0;"/><line style="stroke: #A80036; stroke-width: 1.0;" x1="263.5" x2="604.5" y1="513.4185" y2="513.4185"/><text fill="#000000" font-family="sans-serif" font-size="13" font-weight="bold" lengthAdjust="spacingAndGlyphs" textLength="7" x="275.5" y="509.3164">9</text><text fill="#000000" font-family="sans-serif" font-size="13" lengthAdjust="spacingAndGlyphs" textLength="143" x="286.5" y="509.3164">确认收到首付，批准贷款</text><polygon fill="#008000" points="57.5,541.1729,47.5,545.1729,57.5,549.1729,53.5,545.1729" style="stroke: #008000; stroke-width: 1.0;"/><line style="stroke: #008000; stroke-width: 1.0; stroke-dasharray: 2.0,2.0;" x1="51.5" x2="604.5" y1="545.1729" y2="545.1729"/><text fill="#000000" font-family="sans-serif" font-size="13" font-weight="bold" lengthAdjust="spacingAndGlyphs" textLength="14" x="63.5" y="541.0708">10</text><text fill="#000000" font-family="sans-serif" font-size="13" lengthAdjust="spacingAndGlyphs" textLength="130" x="81.5" y="541.0708">短信通知商户贷款批准</text><rect fill="#EEEEEE" filter="url(#f1bu9cbtf1uo1m)" height="3" style="stroke: #EEEEEE; stroke-width: 1.0;" width="667" x="3" y="575.8044"/><line style="stroke: #000000; stroke-width: 1.0;" x1="3" x2="670" y1="575.8044" y2="575.8044"/><line style="stroke: #000000; stroke-width: 1.0;" x1="3" x2="670" y1="578.8044" y2="578.8044"/><rect fill="#EEEEEE" filter="url(#f1bu9cbtf1uo1m)" height="25.7544" style="stroke: #000000; stroke-width: 2.0;" width="50" x="311.5" y="563.9272"/><text fill="#000000" font-family="sans-serif" font-size="13" font-weight="bold" lengthAdjust="spacingAndGlyphs" textLength="28" x="317.5" y="582.8252">放款</text><polygon fill="#A80036" points="57.5,618.6816,47.5,622.6816,57.5,626.6816,53.5,622.6816" style="stroke: #A80036; stroke-width: 1.0;"/><line style="stroke: #A80036; stroke-width: 1.0;" x1="51.5" x2="247.5" y1="622.6816" y2="622.6816"/><text fill="#000000" font-family="sans-serif" font-size="13" font-weight="bold" lengthAdjust="spacingAndGlyphs" textLength="14" x="63.5" y="618.5796">11</text><text fill="#000000" font-family="sans-serif" font-size="13" lengthAdjust="spacingAndGlyphs" textLength="52" x="81.5" y="618.5796">商品发货</text><polygon fill="#A80036" points="593.5,650.436,603.5,654.436,593.5,658.436,597.5,654.436" style="stroke: #A80036; stroke-width: 1.0;"/><line style="stroke: #A80036; stroke-width: 1.0;" x1="41.5" x2="599.5" y1="654.436" y2="654.436"/><text fill="#000000" font-family="sans-serif" font-size="13" font-weight="bold" lengthAdjust="spacingAndGlyphs" textLength="14" x="48.5" y="650.334">12</text><text fill="#000000" font-family="sans-serif" font-size="13" lengthAdjust="spacingAndGlyphs" textLength="52" x="66.5" y="650.334">确认收货</text><polygon fill="#A80036" points="264.5,682.1904,254.5,686.1904,264.5,690.1904,260.5,686.1904" style="stroke: #A80036; stroke-width: 1.0;"/><line style="stroke: #A80036; stroke-width: 1.0;" x1="258.5" x2="604.5" y1="686.1904" y2="686.1904"/><text fill="#000000" font-family="sans-serif" font-size="13" font-weight="bold" lengthAdjust="spacingAndGlyphs" textLength="14" x="270.5" y="682.0884">13</text><text fill="#000000" font-family="sans-serif" font-size="13" lengthAdjust="spacingAndGlyphs" textLength="26" x="288.5" y="682.0884">放款</text><polygon fill="#008000" points="57.5,713.9448,47.5,717.9448,57.5,721.9448,53.5,717.9448" style="stroke: #008000; stroke-width: 1.0;"/><line style="stroke: #008000; stroke-width: 1.0; stroke-dasharray: 2.0,2.0;" x1="51.5" x2="604.5" y1="717.9448" y2="717.9448"/><text fill="#000000" font-family="sans-serif" font-size="13" font-weight="bold" lengthAdjust="spacingAndGlyphs" textLength="14" x="63.5" y="713.8428">14</text><text fill="#000000" font-family="sans-serif" font-size="13" lengthAdjust="spacingAndGlyphs" textLength="130" x="81.5" y="713.8428">短信通知商户贷款情况</text><rect fill="#EEEEEE" filter="url(#f1bu9cbtf1uo1m)" height="3" style="stroke: #EEEEEE; stroke-width: 1.0;" width="667" x="3" y="748.5764"/><line style="stroke: #000000; stroke-width: 1.0;" x1="3" x2="670" y1="748.5764" y2="748.5764"/><line style="stroke: #000000; stroke-width: 1.0;" x1="3" x2="670" y1="751.5764" y2="751.5764"/><rect fill="#EEEEEE" filter="url(#f1bu9cbtf1uo1m)" height="25.7544" style="stroke: #000000; stroke-width: 2.0;" width="50" x="311.5" y="736.6992"/><text fill="#000000" font-family="sans-serif" font-size="13" font-weight="bold" lengthAdjust="spacingAndGlyphs" textLength="28" x="317.5" y="755.5972">还款</text><polygon fill="#0000FF" points="598.5,791.4536,608.5,795.4536,598.5,799.4536,602.5,795.4536" style="stroke: #0000FF; stroke-width: 1.0;"/><line style="stroke: #0000FF; stroke-width: 1.0;" x1="41.5" x2="604.5" y1="795.4536" y2="795.4536"/><text fill="#000000" font-family="sans-serif" font-size="13" font-weight="bold" lengthAdjust="spacingAndGlyphs" textLength="14" x="48.5" y="791.3516">15</text><text fill="#000000" font-family="sans-serif" font-size="13" lengthAdjust="spacingAndGlyphs" textLength="169" x="66.5" y="791.3516">登录商户平台或通华平台还款</text><!--
@startuml
actor “商户-买方” as Foo1
actor “平台-卖方” as Foo2
database “金融机构-资金方” as Foo3

autonumber
== 商户注册  ==
Foo1 -[#0000FF]> Foo2 : 申请“分期购”补齐商户注册信息
activate Foo1
activate Foo2
Foo2 -[#008000]-> Foo3 : 后台自动为商户开户
activate Foo3
Foo3 -[#008000]-> Foo2 : 返回商户开户账号
deactivate Foo2
Foo3 -[#008000]-> Foo1 : 短信发送商户通华平台初始密码
deactivate Foo1
deactivate Foo3

== 贷款申请  ==
Foo1 -[#0000FF]> Foo2 : 确认选购商品并使用“分期购”
activate Foo1
activate Foo2
activate Foo3
Foo2 -[#0000FF]> Foo3 : 发送：商户号、订单号、商品清单、总金额、首付金额
deactivate Foo2
Foo3 -[#0000FF]> Foo1 : 展示贷款合同、订单号、商品清单、总金额、首付金额
Foo1 -[#0000FF]> Foo3 : 确认贷款合同、填写密码或短信验证码、支付首付
deactivate Foo1

== 贷款批准  ==
Foo3 -> Foo2 : 确认收到首付，批准贷款
activate Foo2

Foo3 -[#008000]-> Foo1 : 短信通知商户贷款批准
activate Foo1
== 放款  ==
Foo2 -> Foo1 : 商品发货

Foo1 -> Foo3 : 确认收货
deactivate Foo1
Foo3 -> Foo2 : 放款
deactivate Foo2

Foo3 -[#008000]-> Foo1 : 短信通知商户贷款情况
activate Foo1
== 还款  ==

Foo1 -[#0000FF]> Foo3 : 登录商户平台或通华平台还款
deactivate Foo1
deactivate Foo3

@enduml

PlantUML version 1.2017.15(Tue Jul 04 00:45:34 CST 2017)
(EPL source distribution)
Java Runtime: Java(TM) SE Runtime Environment
JVM: Java HotSpot(TM) 64-Bit Server VM
Java Version: 1.8.0_144-b01
Operating System: Windows 10
OS Version: 10.0
Default Encoding: GBK
Language: zh
Country: CN
--></g></svg>